<mxfile host="Electron" modified="2023-10-07T20:50:23.282Z" agent="Mozilla/5.0 (X11; Linux x86_64) AppleWebKit/537.36 (KHTML, like Gecko) draw.io/22.0.2 Chrome/114.0.5735.134 Electron/25.6.0 Safari/537.36" etag="7ggUaOP8iufDDbiaeUmE" version="22.0.2" type="device">
  <diagram name="PÃ¡gina-1" id="C1UfojnQkxF_O-7mEqdd">
    <mxGraphModel dx="1173" dy="703" grid="1" gridSize="10" guides="1" tooltips="1" connect="1" arrows="1" fold="1" page="1" pageScale="1" pageWidth="1650" pageHeight="600" math="0" shadow="0">
      <root>
        <mxCell id="0" />
        <mxCell id="1" parent="0" />
        <mxCell id="9HYfvGbNNLdlNzhzB_2Z-7" value="" style="group" vertex="1" connectable="0" parent="1">
          <mxGeometry x="790.01" y="80.01" width="60" height="362.495" as="geometry" />
        </mxCell>
        <mxCell id="NU09ctqqksHrogIv6mvl-248" value="" style="rounded=0;whiteSpace=wrap;html=1;direction=west;flipV=0;flipH=1;labelPosition=center;verticalLabelPosition=middle;align=center;verticalAlign=middle;" parent="9HYfvGbNNLdlNzhzB_2Z-7" vertex="1">
          <mxGeometry y="0.0049999999999954525" width="60" height="360" as="geometry" />
        </mxCell>
        <mxCell id="NU09ctqqksHrogIv6mvl-250" value="&lt;div&gt;DECODE / EXECUTE&lt;/div&gt;" style="text;html=1;strokeColor=none;fillColor=none;align=center;verticalAlign=middle;whiteSpace=wrap;rounded=0;rotation=-90;" parent="9HYfvGbNNLdlNzhzB_2Z-7" vertex="1">
          <mxGeometry x="-51.360000000000014" y="165" width="164.24" height="30" as="geometry" />
        </mxCell>
        <mxCell id="9HYfvGbNNLdlNzhzB_2Z-209" value="" style="triangle;whiteSpace=wrap;html=1;rotation=-90;" vertex="1" parent="9HYfvGbNNLdlNzhzB_2Z-7">
          <mxGeometry x="26.389999999999986" y="349" width="8.75" height="12.5" as="geometry" />
        </mxCell>
        <mxCell id="NU09ctqqksHrogIv6mvl-5" value="" style="group" parent="1" vertex="1" connectable="0">
          <mxGeometry x="474.01" y="80.00500000000001" width="60" height="360.015" as="geometry" />
        </mxCell>
        <mxCell id="wo_onzVFNb4peeyBDmlH-4" value="" style="rounded=0;whiteSpace=wrap;html=1;direction=west;flipV=0;flipH=1;labelPosition=center;verticalLabelPosition=middle;align=center;verticalAlign=middle;" parent="NU09ctqqksHrogIv6mvl-5" vertex="1">
          <mxGeometry y="0.0049999999999954525" width="60" height="360" as="geometry" />
        </mxCell>
        <mxCell id="NU09ctqqksHrogIv6mvl-1" value="PC" style="rounded=0;whiteSpace=wrap;html=1;dashed=1;labelPosition=center;verticalLabelPosition=top;align=center;verticalAlign=bottom;movable=1;resizable=1;rotatable=1;deletable=1;editable=1;locked=0;connectable=1;" parent="1" vertex="1">
          <mxGeometry x="80" y="90.01" width="240" height="240" as="geometry" />
        </mxCell>
        <mxCell id="wo_onzVFNb4peeyBDmlH-22" style="edgeStyle=orthogonalEdgeStyle;rounded=0;orthogonalLoop=1;jettySize=auto;html=1;exitX=0;exitY=0.10833333333333334;exitDx=0;exitDy=3;exitPerimeter=0;entryX=0;entryY=0.5;entryDx=0;entryDy=0;" parent="1" source="wo_onzVFNb4peeyBDmlH-11" target="wo_onzVFNb4peeyBDmlH-16" edge="1">
          <mxGeometry relative="1" as="geometry">
            <Array as="points">
              <mxPoint x="90.00000000000001" y="136.01" />
              <mxPoint x="90.00000000000001" y="162.01" />
            </Array>
          </mxGeometry>
        </mxCell>
        <mxCell id="wo_onzVFNb4peeyBDmlH-11" value="Mux" style="shadow=0;dashed=0;align=center;html=1;strokeWidth=1;shape=mxgraph.electrical.abstract.mux2;whiteSpace=wrap;operation=mux;selectorPins=2;fillColor=#0050ef;strokeColor=#001DBC;fontColor=#ffffff;" parent="1" vertex="1">
          <mxGeometry x="150" y="120.01000000000002" width="80" height="120" as="geometry" />
        </mxCell>
        <mxCell id="wo_onzVFNb4peeyBDmlH-13" style="edgeStyle=orthogonalEdgeStyle;rounded=0;orthogonalLoop=1;jettySize=auto;html=1;exitX=0;exitY=0.25;exitDx=0;exitDy=0;entryX=1;entryY=0.5;entryDx=0;entryDy=-5;entryPerimeter=0;endArrow=none;endFill=0;" parent="1" source="wo_onzVFNb4peeyBDmlH-6" target="wo_onzVFNb4peeyBDmlH-11" edge="1">
          <mxGeometry relative="1" as="geometry" />
        </mxCell>
        <mxCell id="wo_onzVFNb4peeyBDmlH-14" style="edgeStyle=orthogonalEdgeStyle;rounded=0;orthogonalLoop=1;jettySize=auto;html=1;exitX=0.1875;exitY=1;exitDx=10;exitDy=0;exitPerimeter=0;entryX=0.5625;entryY=1;entryDx=10;entryDy=0;entryPerimeter=0;endArrow=none;endFill=0;" parent="1" source="wo_onzVFNb4peeyBDmlH-11" target="wo_onzVFNb4peeyBDmlH-11" edge="1">
          <mxGeometry relative="1" as="geometry" />
        </mxCell>
        <mxCell id="wo_onzVFNb4peeyBDmlH-16" value="+1" style="rounded=0;whiteSpace=wrap;html=1;" parent="1" vertex="1">
          <mxGeometry x="120" y="152.01" width="20" height="20" as="geometry" />
        </mxCell>
        <mxCell id="wo_onzVFNb4peeyBDmlH-21" style="edgeStyle=orthogonalEdgeStyle;rounded=0;orthogonalLoop=1;jettySize=auto;html=1;entryX=0;entryY=0.325;entryDx=0;entryDy=3;entryPerimeter=0;endArrow=none;endFill=0;" parent="1" target="wo_onzVFNb4peeyBDmlH-11" edge="1">
          <mxGeometry relative="1" as="geometry">
            <mxPoint x="140" y="162.01" as="sourcePoint" />
          </mxGeometry>
        </mxCell>
        <mxCell id="wo_onzVFNb4peeyBDmlH-59" style="edgeStyle=orthogonalEdgeStyle;rounded=0;orthogonalLoop=1;jettySize=auto;html=1;exitX=1;exitY=0.5;exitDx=0;exitDy=0;entryX=0;entryY=0.5;entryDx=0;entryDy=0;" parent="1" source="wo_onzVFNb4peeyBDmlH-26" target="wo_onzVFNb4peeyBDmlH-56" edge="1">
          <mxGeometry relative="1" as="geometry">
            <mxPoint x="360.01" y="176.3433333333333" as="targetPoint" />
          </mxGeometry>
        </mxCell>
        <mxCell id="wo_onzVFNb4peeyBDmlH-64" style="edgeStyle=orthogonalEdgeStyle;rounded=0;orthogonalLoop=1;jettySize=auto;html=1;exitX=1;exitY=0.5;exitDx=0;exitDy=0;entryX=-0.003;entryY=0.917;entryDx=0;entryDy=0;entryPerimeter=0;" parent="1" source="wo_onzVFNb4peeyBDmlH-26" target="wo_onzVFNb4peeyBDmlH-4" edge="1">
          <mxGeometry relative="1" as="geometry">
            <mxPoint x="470.01" y="110.01000000000002" as="targetPoint" />
            <Array as="points">
              <mxPoint x="330.01" y="176.01" />
              <mxPoint x="330.01" y="110.01000000000002" />
            </Array>
          </mxGeometry>
        </mxCell>
        <mxCell id="wo_onzVFNb4peeyBDmlH-65" value="ADDR" style="edgeLabel;html=1;align=center;verticalAlign=middle;resizable=0;points=[];fontSize=8;" parent="wo_onzVFNb4peeyBDmlH-64" vertex="1" connectable="0">
          <mxGeometry x="0.7687" relative="1" as="geometry">
            <mxPoint x="40" y="1" as="offset" />
          </mxGeometry>
        </mxCell>
        <mxCell id="wo_onzVFNb4peeyBDmlH-66" style="edgeStyle=orthogonalEdgeStyle;rounded=0;orthogonalLoop=1;jettySize=auto;html=1;entryX=-0.005;entryY=0.733;entryDx=0;entryDy=0;entryPerimeter=0;" parent="1" source="wo_onzVFNb4peeyBDmlH-58" target="wo_onzVFNb4peeyBDmlH-4" edge="1">
          <mxGeometry relative="1" as="geometry" />
        </mxCell>
        <mxCell id="wo_onzVFNb4peeyBDmlH-67" value="INSTR" style="edgeLabel;html=1;align=center;verticalAlign=middle;resizable=0;points=[];fontSize=8;" parent="wo_onzVFNb4peeyBDmlH-66" vertex="1" connectable="0">
          <mxGeometry x="-0.0873" relative="1" as="geometry">
            <mxPoint x="40" as="offset" />
          </mxGeometry>
        </mxCell>
        <mxCell id="wo_onzVFNb4peeyBDmlH-68" value="FETCH / DECODE" style="text;html=1;strokeColor=none;fillColor=none;align=center;verticalAlign=middle;whiteSpace=wrap;rounded=0;rotation=-90;" parent="1" vertex="1">
          <mxGeometry x="449.01" y="245.01" width="110" height="30" as="geometry" />
        </mxCell>
        <mxCell id="wo_onzVFNb4peeyBDmlH-98" style="edgeStyle=orthogonalEdgeStyle;rounded=0;orthogonalLoop=1;jettySize=auto;html=1;exitX=1;exitY=0.5;exitDx=0;exitDy=0;endArrow=none;endFill=0;" parent="1" source="wo_onzVFNb4peeyBDmlH-26" edge="1">
          <mxGeometry relative="1" as="geometry">
            <mxPoint x="90.00000000000001" y="140.01" as="targetPoint" />
            <Array as="points">
              <mxPoint x="310" y="176.01" />
              <mxPoint x="310" y="110.01000000000002" />
              <mxPoint x="90.00000000000001" y="110.01000000000002" />
            </Array>
          </mxGeometry>
        </mxCell>
        <mxCell id="NU09ctqqksHrogIv6mvl-48" value="" style="group;movable=1;resizable=1;rotatable=1;deletable=1;editable=1;locked=0;connectable=1;fillColor=#60a917;fontColor=#ffffff;strokeColor=#2D7600;container=0;" parent="1" vertex="1" connectable="0">
          <mxGeometry x="240.01" y="160.01" width="60" height="60" as="geometry" />
        </mxCell>
        <mxCell id="NU09ctqqksHrogIv6mvl-56" value="" style="rounded=0;whiteSpace=wrap;html=1;fillColor=#6a00ff;strokeColor=#3700CC;fontColor=#ffffff;" parent="1" vertex="1">
          <mxGeometry x="602.01" y="245.01" width="126" height="65" as="geometry" />
        </mxCell>
        <mxCell id="NU09ctqqksHrogIv6mvl-205" value="REGISTERS" style="text;html=1;strokeColor=none;fillColor=none;align=center;verticalAlign=middle;whiteSpace=wrap;rounded=0;" parent="1" vertex="1">
          <mxGeometry x="635.01" y="282.01" width="60" height="30" as="geometry" />
        </mxCell>
        <mxCell id="NU09ctqqksHrogIv6mvl-246" style="edgeStyle=orthogonalEdgeStyle;rounded=0;orthogonalLoop=1;jettySize=auto;html=1;entryX=0;entryY=0.5;entryDx=0;entryDy=0;" parent="1" target="NU09ctqqksHrogIv6mvl-13" edge="1">
          <mxGeometry relative="1" as="geometry">
            <mxPoint x="534.01" y="176.01" as="sourcePoint" />
            <Array as="points">
              <mxPoint x="534.01" y="176.01" />
              <mxPoint x="572.01" y="176.01" />
            </Array>
          </mxGeometry>
        </mxCell>
        <mxCell id="NU09ctqqksHrogIv6mvl-251" style="edgeStyle=orthogonalEdgeStyle;rounded=0;orthogonalLoop=1;jettySize=auto;html=1;entryX=0.008;entryY=0.735;entryDx=0;entryDy=0;entryPerimeter=0;" parent="1" source="NU09ctqqksHrogIv6mvl-14" target="NU09ctqqksHrogIv6mvl-248" edge="1">
          <mxGeometry relative="1" as="geometry" />
        </mxCell>
        <mxCell id="NU09ctqqksHrogIv6mvl-252" value="IMMED" style="edgeLabel;html=1;align=center;verticalAlign=middle;resizable=0;points=[];fontSize=8;" parent="NU09ctqqksHrogIv6mvl-251" vertex="1" connectable="0">
          <mxGeometry x="0.3862" relative="1" as="geometry">
            <mxPoint x="36" y="1" as="offset" />
          </mxGeometry>
        </mxCell>
        <mxCell id="NU09ctqqksHrogIv6mvl-253" value="" style="endArrow=classic;html=1;rounded=0;exitX=1.001;exitY=0.916;exitDx=0;exitDy=0;exitPerimeter=0;entryX=0.001;entryY=0.917;entryDx=0;entryDy=0;entryPerimeter=0;" parent="1" source="wo_onzVFNb4peeyBDmlH-4" target="NU09ctqqksHrogIv6mvl-248" edge="1">
          <mxGeometry width="50" height="50" relative="1" as="geometry">
            <mxPoint x="530.01" y="150.01" as="sourcePoint" />
            <mxPoint x="574.01" y="100.00500000000002" as="targetPoint" />
          </mxGeometry>
        </mxCell>
        <mxCell id="NU09ctqqksHrogIv6mvl-254" value="ADDR" style="edgeLabel;html=1;align=center;verticalAlign=middle;resizable=0;points=[];fontSize=8;" parent="NU09ctqqksHrogIv6mvl-253" vertex="1" connectable="0">
          <mxGeometry x="0.8654" y="1" relative="1" as="geometry">
            <mxPoint x="30" as="offset" />
          </mxGeometry>
        </mxCell>
        <mxCell id="NU09ctqqksHrogIv6mvl-255" style="edgeStyle=orthogonalEdgeStyle;rounded=0;orthogonalLoop=1;jettySize=auto;html=1;entryX=-0.002;entryY=0.229;entryDx=0;entryDy=0;exitX=1.001;exitY=0.733;exitDx=0;exitDy=0;exitPerimeter=0;entryPerimeter=0;" parent="1" source="wo_onzVFNb4peeyBDmlH-4" target="NU09ctqqksHrogIv6mvl-56" edge="1">
          <mxGeometry relative="1" as="geometry">
            <Array as="points">
              <mxPoint x="550" y="176" />
              <mxPoint x="550" y="260" />
            </Array>
            <mxPoint x="550.01" y="180.01" as="sourcePoint" />
          </mxGeometry>
        </mxCell>
        <mxCell id="NU09ctqqksHrogIv6mvl-257" value="Ra1" style="edgeLabel;html=1;align=center;verticalAlign=middle;resizable=0;points=[];fontSize=7;" parent="NU09ctqqksHrogIv6mvl-255" vertex="1" connectable="0">
          <mxGeometry x="0.6" relative="1" as="geometry">
            <mxPoint x="14" y="-6" as="offset" />
          </mxGeometry>
        </mxCell>
        <mxCell id="NU09ctqqksHrogIv6mvl-256" value="" style="endArrow=classic;html=1;rounded=0;entryX=-0.003;entryY=0.74;entryDx=0;entryDy=0;entryPerimeter=0;" parent="1" target="NU09ctqqksHrogIv6mvl-56" edge="1">
          <mxGeometry width="50" height="50" relative="1" as="geometry">
            <mxPoint x="580" y="260" as="sourcePoint" />
            <mxPoint x="601.638" y="275.012" as="targetPoint" />
            <Array as="points">
              <mxPoint x="580" y="260" />
              <mxPoint x="580.01" y="275.01" />
              <mxPoint x="580.01" y="293.01" />
            </Array>
          </mxGeometry>
        </mxCell>
        <mxCell id="NU09ctqqksHrogIv6mvl-258" value="Ra2" style="edgeLabel;html=1;align=center;verticalAlign=middle;resizable=0;points=[];fontSize=7;" parent="NU09ctqqksHrogIv6mvl-256" vertex="1" connectable="0">
          <mxGeometry x="0.6808" relative="1" as="geometry">
            <mxPoint x="-8" y="5" as="offset" />
          </mxGeometry>
        </mxCell>
        <mxCell id="NU09ctqqksHrogIv6mvl-260" value="R0..R32" style="rounded=1;whiteSpace=wrap;html=1;fontSize=9;" parent="1" vertex="1">
          <mxGeometry x="640.01" y="254.01" width="50" height="28" as="geometry" />
        </mxCell>
        <mxCell id="NU09ctqqksHrogIv6mvl-261" style="edgeStyle=orthogonalEdgeStyle;rounded=0;orthogonalLoop=1;jettySize=auto;html=1;exitX=1;exitY=0.25;exitDx=0;exitDy=0;entryX=0.003;entryY=0.496;entryDx=0;entryDy=0;entryPerimeter=0;" parent="1" source="NU09ctqqksHrogIv6mvl-56" target="NU09ctqqksHrogIv6mvl-248" edge="1">
          <mxGeometry relative="1" as="geometry" />
        </mxCell>
        <mxCell id="9HYfvGbNNLdlNzhzB_2Z-26" value="Rd1" style="edgeLabel;html=1;align=center;verticalAlign=middle;resizable=0;points=[];fontSize=8;" vertex="1" connectable="0" parent="NU09ctqqksHrogIv6mvl-261">
          <mxGeometry x="0.2211" relative="1" as="geometry">
            <mxPoint x="34" y="-1" as="offset" />
          </mxGeometry>
        </mxCell>
        <mxCell id="NU09ctqqksHrogIv6mvl-262" style="edgeStyle=orthogonalEdgeStyle;rounded=0;orthogonalLoop=1;jettySize=auto;html=1;exitX=1;exitY=0.75;exitDx=0;exitDy=0;entryX=-0.008;entryY=0.406;entryDx=0;entryDy=0;entryPerimeter=0;" parent="1" source="NU09ctqqksHrogIv6mvl-56" target="NU09ctqqksHrogIv6mvl-248" edge="1">
          <mxGeometry relative="1" as="geometry" />
        </mxCell>
        <mxCell id="9HYfvGbNNLdlNzhzB_2Z-27" value="Rd2" style="edgeLabel;html=1;align=center;verticalAlign=middle;resizable=0;points=[];fontSize=8;" vertex="1" connectable="0" parent="NU09ctqqksHrogIv6mvl-262">
          <mxGeometry x="0.2839" relative="1" as="geometry">
            <mxPoint x="33" as="offset" />
          </mxGeometry>
        </mxCell>
        <mxCell id="NU09ctqqksHrogIv6mvl-263" value="" style="group;fillColor=#1ba1e2;fontColor=#ffffff;strokeColor=#006EAF;container=0;" parent="1" vertex="1" connectable="0">
          <mxGeometry x="610.01" y="160.01" width="110" height="31" as="geometry" />
        </mxCell>
        <mxCell id="NU09ctqqksHrogIv6mvl-264" value="" style="group;fillColor=#d80073;fontColor=#ffffff;strokeColor=#A50040;container=0;" parent="1" vertex="1" connectable="0">
          <mxGeometry x="350.01" y="160.01" width="80" height="90" as="geometry" />
        </mxCell>
        <mxCell id="NU09ctqqksHrogIv6mvl-270" value="" style="group" parent="1" vertex="1" connectable="0">
          <mxGeometry x="1090.01" y="80.01000000000002" width="60" height="362.495" as="geometry" />
        </mxCell>
        <mxCell id="NU09ctqqksHrogIv6mvl-271" value="" style="rounded=0;whiteSpace=wrap;html=1;direction=west;flipV=0;flipH=1;labelPosition=center;verticalLabelPosition=middle;align=center;verticalAlign=middle;" parent="NU09ctqqksHrogIv6mvl-270" vertex="1">
          <mxGeometry width="60" height="360.01" as="geometry" />
        </mxCell>
        <mxCell id="9HYfvGbNNLdlNzhzB_2Z-210" value="" style="triangle;whiteSpace=wrap;html=1;rotation=-90;" vertex="1" parent="NU09ctqqksHrogIv6mvl-270">
          <mxGeometry x="25.62999999999988" y="349" width="8.75" height="12.5" as="geometry" />
        </mxCell>
        <mxCell id="W9NHx8S7xYnkSQFY3Qpa-1" value="" style="group" parent="1" vertex="1" connectable="0">
          <mxGeometry x="240.01" y="160.01" width="60" height="60" as="geometry" />
        </mxCell>
        <mxCell id="wo_onzVFNb4peeyBDmlH-6" value="&lt;font style=&quot;font-size: 10px;&quot;&gt;REG 32&lt;/font&gt;" style="rounded=0;whiteSpace=wrap;html=1;container=0;fillColor=#60a917;strokeColor=#2D7600;fontColor=#ffffff;" parent="W9NHx8S7xYnkSQFY3Qpa-1" vertex="1">
          <mxGeometry width="59.99999999999999" height="60" as="geometry" />
        </mxCell>
        <mxCell id="wo_onzVFNb4peeyBDmlH-9" value="" style="triangle;whiteSpace=wrap;html=1;rotation=0;container=0;" parent="W9NHx8S7xYnkSQFY3Qpa-1" vertex="1">
          <mxGeometry y="23.75" width="8.749999999999998" height="12.5" as="geometry" />
        </mxCell>
        <mxCell id="wo_onzVFNb4peeyBDmlH-24" value="D" style="text;html=1;strokeColor=none;fillColor=none;align=center;verticalAlign=middle;whiteSpace=wrap;rounded=0;container=0;fontSize=8;" parent="W9NHx8S7xYnkSQFY3Qpa-1" vertex="1">
          <mxGeometry y="8.75" width="9.999999999999998" height="15" as="geometry" />
        </mxCell>
        <mxCell id="wo_onzVFNb4peeyBDmlH-26" value="Q" style="text;html=1;strokeColor=none;fillColor=none;align=center;verticalAlign=middle;whiteSpace=wrap;rounded=0;container=0;fontSize=8;" parent="W9NHx8S7xYnkSQFY3Qpa-1" vertex="1">
          <mxGeometry x="50" y="8.75" width="9.999999999999998" height="15" as="geometry" />
        </mxCell>
        <mxCell id="W9NHx8S7xYnkSQFY3Qpa-2" value="" style="group" parent="1" vertex="1" connectable="0">
          <mxGeometry x="350.01" y="160.01" width="80" height="90" as="geometry" />
        </mxCell>
        <mxCell id="wo_onzVFNb4peeyBDmlH-28" value="MEM PROG" style="rounded=0;whiteSpace=wrap;html=1;fillColor=#d80073;strokeColor=#A50040;fontColor=#ffffff;" parent="W9NHx8S7xYnkSQFY3Qpa-2" vertex="1">
          <mxGeometry width="80" height="90" as="geometry" />
        </mxCell>
        <mxCell id="wo_onzVFNb4peeyBDmlH-52" value="" style="sketch=0;outlineConnect=0;fontColor=#232F3E;gradientColor=none;fillColor=#232F3D;strokeColor=none;dashed=0;verticalLabelPosition=bottom;verticalAlign=top;align=center;html=1;fontSize=12;fontStyle=0;aspect=fixed;pointerEvents=1;shape=mxgraph.aws4.source_code;" parent="W9NHx8S7xYnkSQFY3Qpa-2" vertex="1">
          <mxGeometry x="32.69" y="60" width="14.62" height="20" as="geometry" />
        </mxCell>
        <mxCell id="wo_onzVFNb4peeyBDmlH-56" value="ADDR" style="text;html=1;strokeColor=none;fillColor=none;align=center;verticalAlign=middle;whiteSpace=wrap;rounded=0;container=0;fontSize=8;" parent="W9NHx8S7xYnkSQFY3Qpa-2" vertex="1">
          <mxGeometry y="8.75" width="30" height="15" as="geometry" />
        </mxCell>
        <mxCell id="wo_onzVFNb4peeyBDmlH-58" value="DATA" style="text;html=1;strokeColor=none;fillColor=none;align=center;verticalAlign=middle;whiteSpace=wrap;rounded=0;container=0;fontSize=8;" parent="W9NHx8S7xYnkSQFY3Qpa-2" vertex="1">
          <mxGeometry x="50" y="8.75" width="30" height="15" as="geometry" />
        </mxCell>
        <mxCell id="NU09ctqqksHrogIv6mvl-16" value="" style="group;fillColor=#ffe6cc;strokeColor=#d79b00;container=0;" parent="1" vertex="1" connectable="0">
          <mxGeometry x="610.01" y="160.01" width="110" height="31" as="geometry" />
        </mxCell>
        <mxCell id="W9NHx8S7xYnkSQFY3Qpa-3" value="" style="group" parent="1" vertex="1" connectable="0">
          <mxGeometry x="610.01" y="160.01" width="110" height="31" as="geometry" />
        </mxCell>
        <mxCell id="NU09ctqqksHrogIv6mvl-7" value="EXT 32" style="rounded=0;whiteSpace=wrap;html=1;fillColor=#a20025;strokeColor=#6F0000;fontColor=#ffffff;" parent="W9NHx8S7xYnkSQFY3Qpa-3" vertex="1">
          <mxGeometry width="110" height="31" as="geometry" />
        </mxCell>
        <mxCell id="NU09ctqqksHrogIv6mvl-13" value="INSTR" style="text;html=1;strokeColor=none;fillColor=none;align=center;verticalAlign=middle;whiteSpace=wrap;rounded=0;container=0;fontSize=8;" parent="W9NHx8S7xYnkSQFY3Qpa-3" vertex="1">
          <mxGeometry y="8" width="26" height="15" as="geometry" />
        </mxCell>
        <mxCell id="NU09ctqqksHrogIv6mvl-14" value="IM32" style="text;html=1;strokeColor=none;fillColor=none;align=center;verticalAlign=middle;whiteSpace=wrap;rounded=0;container=0;fontSize=8;" parent="W9NHx8S7xYnkSQFY3Qpa-3" vertex="1">
          <mxGeometry x="90" y="8" width="20" height="15" as="geometry" />
        </mxCell>
        <mxCell id="9HYfvGbNNLdlNzhzB_2Z-11" style="edgeStyle=orthogonalEdgeStyle;rounded=0;orthogonalLoop=1;jettySize=auto;html=1;" edge="1" parent="1" source="NU09ctqqksHrogIv6mvl-265">
          <mxGeometry relative="1" as="geometry">
            <mxPoint x="1090" y="250" as="targetPoint" />
          </mxGeometry>
        </mxCell>
        <mxCell id="9HYfvGbNNLdlNzhzB_2Z-12" value="DATA" style="edgeLabel;html=1;align=center;verticalAlign=middle;resizable=0;points=[];fontSize=8;" vertex="1" connectable="0" parent="9HYfvGbNNLdlNzhzB_2Z-11">
          <mxGeometry x="-0.1668" y="-2" relative="1" as="geometry">
            <mxPoint x="41" y="-12" as="offset" />
          </mxGeometry>
        </mxCell>
        <mxCell id="9HYfvGbNNLdlNzhzB_2Z-14" value="" style="group" vertex="1" connectable="0" parent="1">
          <mxGeometry x="990.01" y="180.01" width="80" height="120" as="geometry" />
        </mxCell>
        <mxCell id="NU09ctqqksHrogIv6mvl-265" value="" style="shape=trapezoid;perimeter=trapezoidPerimeter;whiteSpace=wrap;html=1;fixedSize=1;rotation=90;fillColor=#fa6800;strokeColor=#C73500;size=40;fontColor=#000000;" parent="9HYfvGbNNLdlNzhzB_2Z-14" vertex="1">
          <mxGeometry x="-25" y="45" width="100" height="50" as="geometry" />
        </mxCell>
        <mxCell id="9HYfvGbNNLdlNzhzB_2Z-6" value="ALU" style="text;html=1;strokeColor=none;fillColor=none;align=center;verticalAlign=middle;whiteSpace=wrap;rounded=0;" vertex="1" parent="9HYfvGbNNLdlNzhzB_2Z-14">
          <mxGeometry x="10" y="60" width="30" height="20" as="geometry" />
        </mxCell>
        <mxCell id="9HYfvGbNNLdlNzhzB_2Z-219" value="RFlag" style="rounded=0;whiteSpace=wrap;html=1;fillColor=#e3c800;fontColor=#000000;strokeColor=#B09500;fontSize=8;" vertex="1" parent="9HYfvGbNNLdlNzhzB_2Z-14">
          <mxGeometry x="40" y="25" width="40" height="20" as="geometry" />
        </mxCell>
        <mxCell id="9HYfvGbNNLdlNzhzB_2Z-226" style="edgeStyle=orthogonalEdgeStyle;rounded=0;orthogonalLoop=1;jettySize=auto;html=1;entryX=0.5;entryY=1;entryDx=0;entryDy=0;" edge="1" parent="9HYfvGbNNLdlNzhzB_2Z-14">
          <mxGeometry relative="1" as="geometry">
            <mxPoint x="59" y="25" as="sourcePoint" />
            <mxPoint x="59" y="13" as="targetPoint" />
          </mxGeometry>
        </mxCell>
        <mxCell id="9HYfvGbNNLdlNzhzB_2Z-227" value="" style="endArrow=classic;html=1;rounded=0;entryX=0.5;entryY=1;entryDx=0;entryDy=0;" edge="1" parent="9HYfvGbNNLdlNzhzB_2Z-14" target="9HYfvGbNNLdlNzhzB_2Z-219">
          <mxGeometry width="50" height="50" relative="1" as="geometry">
            <mxPoint x="49.99000000000001" y="69.99000000000001" as="sourcePoint" />
            <mxPoint x="99.99000000000001" y="19.99000000000001" as="targetPoint" />
            <Array as="points">
              <mxPoint x="59.99000000000001" y="69.99000000000001" />
            </Array>
          </mxGeometry>
        </mxCell>
        <mxCell id="9HYfvGbNNLdlNzhzB_2Z-15" value="" style="endArrow=classic;html=1;rounded=0;entryX=0.25;entryY=1;entryDx=0;entryDy=0;exitX=0.997;exitY=0.598;exitDx=0;exitDy=0;exitPerimeter=0;" edge="1" parent="1" source="NU09ctqqksHrogIv6mvl-248" target="NU09ctqqksHrogIv6mvl-265">
          <mxGeometry width="50" height="50" relative="1" as="geometry">
            <mxPoint x="850.01" y="210.01" as="sourcePoint" />
            <mxPoint x="900.01" y="160.01" as="targetPoint" />
          </mxGeometry>
        </mxCell>
        <mxCell id="9HYfvGbNNLdlNzhzB_2Z-32" value="Rd1" style="edgeLabel;html=1;align=center;verticalAlign=middle;resizable=0;points=[];fontSize=8;" vertex="1" connectable="0" parent="9HYfvGbNNLdlNzhzB_2Z-15">
          <mxGeometry x="0.6882" y="2" relative="1" as="geometry">
            <mxPoint x="2" y="-4" as="offset" />
          </mxGeometry>
        </mxCell>
        <mxCell id="9HYfvGbNNLdlNzhzB_2Z-105" value="Rd1" style="edgeLabel;html=1;align=center;verticalAlign=middle;resizable=0;points=[];fontSize=8;" vertex="1" connectable="0" parent="9HYfvGbNNLdlNzhzB_2Z-15">
          <mxGeometry x="-0.862" y="-2" relative="1" as="geometry">
            <mxPoint x="-20" y="-3" as="offset" />
          </mxGeometry>
        </mxCell>
        <mxCell id="9HYfvGbNNLdlNzhzB_2Z-19" value="A+I+1" style="rounded=0;whiteSpace=wrap;html=1;fontSize=9;" vertex="1" parent="1">
          <mxGeometry x="959.03" y="110.01" width="30.97" height="29.99" as="geometry" />
        </mxCell>
        <mxCell id="9HYfvGbNNLdlNzhzB_2Z-30" value="" style="endArrow=classic;html=1;rounded=0;entryX=-0.008;entryY=0.639;entryDx=0;entryDy=0;entryPerimeter=0;" edge="1" parent="1" target="NU09ctqqksHrogIv6mvl-248">
          <mxGeometry width="50" height="50" relative="1" as="geometry">
            <mxPoint x="550.01" y="260.01" as="sourcePoint" />
            <mxPoint x="630.01" y="340.01" as="targetPoint" />
            <Array as="points">
              <mxPoint x="550.01" y="261.01" />
              <mxPoint x="550.01" y="210.01" />
            </Array>
          </mxGeometry>
        </mxCell>
        <mxCell id="9HYfvGbNNLdlNzhzB_2Z-31" value="INSTR" style="edgeLabel;html=1;align=center;verticalAlign=middle;resizable=0;points=[];fontSize=7;" vertex="1" connectable="0" parent="9HYfvGbNNLdlNzhzB_2Z-30">
          <mxGeometry x="0.8419" relative="1" as="geometry">
            <mxPoint x="36" as="offset" />
          </mxGeometry>
        </mxCell>
        <mxCell id="9HYfvGbNNLdlNzhzB_2Z-102" style="edgeStyle=orthogonalEdgeStyle;rounded=0;orthogonalLoop=1;jettySize=auto;html=1;exitX=1;exitY=0.5;exitDx=0;exitDy=-5;exitPerimeter=0;" edge="1" parent="1" source="9HYfvGbNNLdlNzhzB_2Z-33">
          <mxGeometry relative="1" as="geometry">
            <mxPoint x="990" y="269.8918918918919" as="targetPoint" />
          </mxGeometry>
        </mxCell>
        <mxCell id="9HYfvGbNNLdlNzhzB_2Z-33" value="Mux" style="shadow=0;dashed=0;align=center;html=1;strokeWidth=1;shape=mxgraph.electrical.abstract.mux2;whiteSpace=wrap;operation=mux;selectorPins=1;fillColor=#0050ef;strokeColor=#001DBC;fontColor=#ffffff;" vertex="1" parent="1">
          <mxGeometry x="920" y="247.51" width="60" height="56" as="geometry" />
        </mxCell>
        <mxCell id="9HYfvGbNNLdlNzhzB_2Z-34" value="" style="endArrow=classic;html=1;rounded=0;entryX=0;entryY=0.25;entryDx=0;entryDy=0;exitX=1;exitY=0.896;exitDx=0;exitDy=0;exitPerimeter=0;" edge="1" parent="1" source="NU09ctqqksHrogIv6mvl-248" target="9HYfvGbNNLdlNzhzB_2Z-19">
          <mxGeometry width="50" height="50" relative="1" as="geometry">
            <mxPoint x="860.01" y="118.01000000000002" as="sourcePoint" />
            <mxPoint x="950.01" y="90.01000000000002" as="targetPoint" />
          </mxGeometry>
        </mxCell>
        <mxCell id="9HYfvGbNNLdlNzhzB_2Z-37" value="ADDR" style="edgeLabel;html=1;align=center;verticalAlign=middle;resizable=0;points=[];fontSize=8;" vertex="1" connectable="0" parent="9HYfvGbNNLdlNzhzB_2Z-34">
          <mxGeometry x="0.5932" y="1" relative="1" as="geometry">
            <mxPoint x="-2" y="-7" as="offset" />
          </mxGeometry>
        </mxCell>
        <mxCell id="9HYfvGbNNLdlNzhzB_2Z-35" value="" style="endArrow=classic;html=1;rounded=0;entryX=0;entryY=0.75;entryDx=0;entryDy=0;exitX=1.004;exitY=0.855;exitDx=0;exitDy=0;exitPerimeter=0;" edge="1" parent="1" source="NU09ctqqksHrogIv6mvl-248" target="9HYfvGbNNLdlNzhzB_2Z-19">
          <mxGeometry width="50" height="50" relative="1" as="geometry">
            <mxPoint x="870.01" y="134.01" as="sourcePoint" />
            <mxPoint x="970.01" y="120.01000000000002" as="targetPoint" />
          </mxGeometry>
        </mxCell>
        <mxCell id="9HYfvGbNNLdlNzhzB_2Z-36" value="IMMED" style="edgeLabel;html=1;align=center;verticalAlign=middle;resizable=0;points=[];fontSize=8;" vertex="1" connectable="0" parent="9HYfvGbNNLdlNzhzB_2Z-35">
          <mxGeometry x="-0.2404" relative="1" as="geometry">
            <mxPoint x="45" y="8" as="offset" />
          </mxGeometry>
        </mxCell>
        <mxCell id="9HYfvGbNNLdlNzhzB_2Z-38" value="" style="group" vertex="1" connectable="0" parent="1">
          <mxGeometry x="1370.01" y="80" width="60" height="361.515" as="geometry" />
        </mxCell>
        <mxCell id="9HYfvGbNNLdlNzhzB_2Z-39" value="" style="rounded=0;whiteSpace=wrap;html=1;direction=west;flipV=0;flipH=1;labelPosition=center;verticalLabelPosition=middle;align=center;verticalAlign=middle;" vertex="1" parent="9HYfvGbNNLdlNzhzB_2Z-38">
          <mxGeometry y="0.0049999305565155" width="60" height="359.99500006944345" as="geometry" />
        </mxCell>
        <mxCell id="9HYfvGbNNLdlNzhzB_2Z-211" value="" style="triangle;whiteSpace=wrap;html=1;rotation=-90;" vertex="1" parent="9HYfvGbNNLdlNzhzB_2Z-38">
          <mxGeometry x="25.62000000000012" y="349.015" width="8.75" height="12.5" as="geometry" />
        </mxCell>
        <mxCell id="9HYfvGbNNLdlNzhzB_2Z-42" value="MEM DATA" style="rounded=0;whiteSpace=wrap;html=1;fillColor=#d80073;strokeColor=#A50040;fontColor=#ffffff;container=0;" vertex="1" parent="1">
          <mxGeometry x="1260" y="215.51" width="80" height="105" as="geometry" />
        </mxCell>
        <mxCell id="9HYfvGbNNLdlNzhzB_2Z-44" value="ADDR" style="text;html=1;strokeColor=none;fillColor=none;align=center;verticalAlign=middle;whiteSpace=wrap;rounded=0;container=0;fontSize=8;" vertex="1" parent="1">
          <mxGeometry x="1260" y="288.51" width="30" height="15" as="geometry" />
        </mxCell>
        <mxCell id="9HYfvGbNNLdlNzhzB_2Z-45" value="OUT" style="text;html=1;strokeColor=none;fillColor=none;align=center;verticalAlign=middle;whiteSpace=wrap;rounded=0;container=0;fontSize=8;" vertex="1" parent="1">
          <mxGeometry x="1310" y="233.76" width="30" height="15" as="geometry" />
        </mxCell>
        <mxCell id="9HYfvGbNNLdlNzhzB_2Z-46" value="DATA" style="text;html=1;strokeColor=none;fillColor=none;align=center;verticalAlign=middle;whiteSpace=wrap;rounded=0;container=0;fontSize=8;" vertex="1" parent="1">
          <mxGeometry x="1260" y="233.76" width="30" height="15" as="geometry" />
        </mxCell>
        <mxCell id="9HYfvGbNNLdlNzhzB_2Z-48" value="" style="shape=datastore;whiteSpace=wrap;html=1;" vertex="1" parent="1">
          <mxGeometry x="1292" y="279.51" width="16" height="24" as="geometry" />
        </mxCell>
        <mxCell id="9HYfvGbNNLdlNzhzB_2Z-49" value="" style="endArrow=classic;html=1;rounded=0;entryX=-0.01;entryY=0.175;entryDx=0;entryDy=0;exitX=1.002;exitY=0.574;exitDx=0;exitDy=0;exitPerimeter=0;entryPerimeter=0;" edge="1" parent="1" source="NU09ctqqksHrogIv6mvl-271" target="9HYfvGbNNLdlNzhzB_2Z-42">
          <mxGeometry width="50" height="50" relative="1" as="geometry">
            <mxPoint x="1160.01" y="250.01" as="sourcePoint" />
            <mxPoint x="1230.01" y="170.01" as="targetPoint" />
          </mxGeometry>
        </mxCell>
        <mxCell id="9HYfvGbNNLdlNzhzB_2Z-50" value="" style="endArrow=classic;html=1;rounded=0;entryX=0;entryY=0;entryDx=0;entryDy=0;exitX=0.997;exitY=0.422;exitDx=0;exitDy=0;exitPerimeter=0;" edge="1" parent="1" source="NU09ctqqksHrogIv6mvl-271" target="9HYfvGbNNLdlNzhzB_2Z-44">
          <mxGeometry width="50" height="50" relative="1" as="geometry">
            <mxPoint x="1160.01" y="350.01" as="sourcePoint" />
            <mxPoint x="1210.01" y="300.01" as="targetPoint" />
          </mxGeometry>
        </mxCell>
        <mxCell id="9HYfvGbNNLdlNzhzB_2Z-120" value="Rd2" style="edgeLabel;html=1;align=center;verticalAlign=middle;resizable=0;points=[];fontSize=8;" vertex="1" connectable="0" parent="9HYfvGbNNLdlNzhzB_2Z-50">
          <mxGeometry x="-0.835" y="1" relative="1" as="geometry">
            <mxPoint y="-7" as="offset" />
          </mxGeometry>
        </mxCell>
        <mxCell id="9HYfvGbNNLdlNzhzB_2Z-52" value="" style="endArrow=classic;html=1;rounded=0;exitX=1;exitY=0.5;exitDx=0;exitDy=0;entryX=0;entryY=0.553;entryDx=0;entryDy=0;entryPerimeter=0;" edge="1" parent="1" source="9HYfvGbNNLdlNzhzB_2Z-45" target="9HYfvGbNNLdlNzhzB_2Z-39">
          <mxGeometry width="50" height="50" relative="1" as="geometry">
            <mxPoint x="1320.01" y="250.01" as="sourcePoint" />
            <mxPoint x="1360.01" y="250.01" as="targetPoint" />
          </mxGeometry>
        </mxCell>
        <mxCell id="9HYfvGbNNLdlNzhzB_2Z-61" value="MEM_DATA" style="edgeLabel;html=1;align=center;verticalAlign=middle;resizable=0;points=[];fontSize=8;" vertex="1" connectable="0" parent="9HYfvGbNNLdlNzhzB_2Z-52">
          <mxGeometry x="0.1834" y="1" relative="1" as="geometry">
            <mxPoint x="39" as="offset" />
          </mxGeometry>
        </mxCell>
        <mxCell id="9HYfvGbNNLdlNzhzB_2Z-53" value="Mux" style="shadow=0;dashed=0;align=center;html=1;strokeWidth=1;shape=mxgraph.electrical.abstract.mux2;whiteSpace=wrap;operation=mux;selectorPins=1;fillColor=#0050ef;strokeColor=#001DBC;fontColor=#ffffff;" vertex="1" parent="1">
          <mxGeometry x="1510.01" y="163.01" width="60" height="114" as="geometry" />
        </mxCell>
        <mxCell id="9HYfvGbNNLdlNzhzB_2Z-55" value="" style="endArrow=classic;html=1;rounded=0;entryX=1;entryY=0.25;entryDx=0;entryDy=0;exitX=1;exitY=0.244;exitDx=0;exitDy=0;exitPerimeter=0;" edge="1" parent="1" source="NU09ctqqksHrogIv6mvl-248">
          <mxGeometry width="50" height="50" relative="1" as="geometry">
            <mxPoint x="850.01" y="263.01" as="sourcePoint" />
            <mxPoint x="1090.01" y="352.01" as="targetPoint" />
          </mxGeometry>
        </mxCell>
        <mxCell id="9HYfvGbNNLdlNzhzB_2Z-56" value="INSTR" style="edgeLabel;html=1;align=center;verticalAlign=middle;resizable=0;points=[];fontSize=8;" vertex="1" connectable="0" parent="9HYfvGbNNLdlNzhzB_2Z-55">
          <mxGeometry x="0.8419" relative="1" as="geometry">
            <mxPoint x="33" as="offset" />
          </mxGeometry>
        </mxCell>
        <mxCell id="9HYfvGbNNLdlNzhzB_2Z-57" value="" style="endArrow=classic;html=1;rounded=0;entryX=0;entryY=0.265;entryDx=0;entryDy=0;exitX=0.999;exitY=0.265;exitDx=0;exitDy=0;exitPerimeter=0;entryPerimeter=0;" edge="1" parent="1" source="NU09ctqqksHrogIv6mvl-271" target="9HYfvGbNNLdlNzhzB_2Z-39">
          <mxGeometry width="50" height="50" relative="1" as="geometry">
            <mxPoint x="1150.01" y="350.01" as="sourcePoint" />
            <mxPoint x="1390.01" y="350.01" as="targetPoint" />
          </mxGeometry>
        </mxCell>
        <mxCell id="9HYfvGbNNLdlNzhzB_2Z-58" value="INSTR" style="edgeLabel;html=1;align=center;verticalAlign=middle;resizable=0;points=[];fontSize=8;" vertex="1" connectable="0" parent="9HYfvGbNNLdlNzhzB_2Z-57">
          <mxGeometry x="0.8419" relative="1" as="geometry">
            <mxPoint x="33" as="offset" />
          </mxGeometry>
        </mxCell>
        <mxCell id="9HYfvGbNNLdlNzhzB_2Z-59" value="" style="endArrow=classic;html=1;rounded=0;entryX=-0.003;entryY=0.723;entryDx=0;entryDy=0;entryPerimeter=0;" edge="1" parent="1" target="9HYfvGbNNLdlNzhzB_2Z-39">
          <mxGeometry width="50" height="50" relative="1" as="geometry">
            <mxPoint x="1220" y="234" as="sourcePoint" />
            <mxPoint x="1340.01" y="190.01" as="targetPoint" />
            <Array as="points">
              <mxPoint x="1220" y="180" />
            </Array>
          </mxGeometry>
        </mxCell>
        <mxCell id="9HYfvGbNNLdlNzhzB_2Z-60" value="DATA" style="edgeLabel;html=1;align=center;verticalAlign=middle;resizable=0;points=[];fontSize=8;" vertex="1" connectable="0" parent="9HYfvGbNNLdlNzhzB_2Z-59">
          <mxGeometry x="0.7079" y="-1" relative="1" as="geometry">
            <mxPoint x="49" y="-1" as="offset" />
          </mxGeometry>
        </mxCell>
        <mxCell id="9HYfvGbNNLdlNzhzB_2Z-66" value="" style="endArrow=none;html=1;rounded=0;exitX=1.001;exitY=0.265;exitDx=0;exitDy=0;exitPerimeter=0;endFill=0;" edge="1" parent="1" source="9HYfvGbNNLdlNzhzB_2Z-39">
          <mxGeometry width="50" height="50" relative="1" as="geometry">
            <mxPoint x="1440.01" y="400.01" as="sourcePoint" />
            <mxPoint x="1540" y="345" as="targetPoint" />
          </mxGeometry>
        </mxCell>
        <mxCell id="9HYfvGbNNLdlNzhzB_2Z-68" value="" style="endArrow=classic;html=1;rounded=0;exitX=1.003;exitY=0.696;exitDx=0;exitDy=0;exitPerimeter=0;" edge="1" parent="1" source="9HYfvGbNNLdlNzhzB_2Z-39">
          <mxGeometry width="50" height="50" relative="1" as="geometry">
            <mxPoint x="1440.01" y="190.01" as="sourcePoint" />
            <mxPoint x="1510.01" y="190.01" as="targetPoint" />
          </mxGeometry>
        </mxCell>
        <mxCell id="9HYfvGbNNLdlNzhzB_2Z-71" value="DATA" style="edgeLabel;html=1;align=center;verticalAlign=middle;resizable=0;points=[];fontSize=8;" vertex="1" connectable="0" parent="9HYfvGbNNLdlNzhzB_2Z-68">
          <mxGeometry x="0.2012" relative="1" as="geometry">
            <mxPoint x="-8" y="-7" as="offset" />
          </mxGeometry>
        </mxCell>
        <mxCell id="9HYfvGbNNLdlNzhzB_2Z-69" value="" style="endArrow=classic;html=1;rounded=0;" edge="1" parent="1">
          <mxGeometry width="50" height="50" relative="1" as="geometry">
            <mxPoint x="1430.01" y="240.01" as="sourcePoint" />
            <mxPoint x="1510.01" y="240.01" as="targetPoint" />
          </mxGeometry>
        </mxCell>
        <mxCell id="9HYfvGbNNLdlNzhzB_2Z-72" value="MEM_DATA" style="edgeLabel;html=1;align=center;verticalAlign=middle;resizable=0;points=[];fontSize=8;" vertex="1" connectable="0" parent="9HYfvGbNNLdlNzhzB_2Z-69">
          <mxGeometry x="0.0488" y="-1" relative="1" as="geometry">
            <mxPoint y="-7" as="offset" />
          </mxGeometry>
        </mxCell>
        <mxCell id="9HYfvGbNNLdlNzhzB_2Z-76" value="" style="endArrow=classic;html=1;rounded=0;" edge="1" parent="1">
          <mxGeometry width="50" height="50" relative="1" as="geometry">
            <mxPoint x="1300" y="345" as="sourcePoint" />
            <mxPoint x="1300" y="321" as="targetPoint" />
          </mxGeometry>
        </mxCell>
        <mxCell id="9HYfvGbNNLdlNzhzB_2Z-77" value="W/R" style="text;html=1;strokeColor=none;fillColor=none;align=center;verticalAlign=middle;whiteSpace=wrap;rounded=0;container=0;fontSize=8;" vertex="1" parent="1">
          <mxGeometry x="1285" y="305.51" width="30" height="15" as="geometry" />
        </mxCell>
        <mxCell id="9HYfvGbNNLdlNzhzB_2Z-78" value="" style="endArrow=classic;html=1;rounded=0;exitX=1;exitY=0.5;exitDx=0;exitDy=-5;exitPerimeter=0;endFill=1;entryX=0.08;entryY=0.952;entryDx=0;entryDy=0;entryPerimeter=0;" edge="1" parent="1" source="9HYfvGbNNLdlNzhzB_2Z-53" target="NU09ctqqksHrogIv6mvl-205">
          <mxGeometry width="50" height="50" relative="1" as="geometry">
            <mxPoint x="1580.01" y="220.01" as="sourcePoint" />
            <mxPoint x="640.01" y="320.01" as="targetPoint" />
            <Array as="points">
              <mxPoint x="1600.01" y="215.01" />
              <mxPoint x="1600.01" y="510.01" />
              <mxPoint x="640.01" y="510.01" />
            </Array>
          </mxGeometry>
        </mxCell>
        <mxCell id="9HYfvGbNNLdlNzhzB_2Z-99" value="DATA" style="edgeLabel;html=1;align=center;verticalAlign=middle;resizable=0;points=[];fontSize=8;" vertex="1" connectable="0" parent="9HYfvGbNNLdlNzhzB_2Z-78">
          <mxGeometry x="0.9726" relative="1" as="geometry">
            <mxPoint x="-17" y="-1" as="offset" />
          </mxGeometry>
        </mxCell>
        <mxCell id="9HYfvGbNNLdlNzhzB_2Z-79" value="" style="endArrow=classic;html=1;rounded=0;endFill=1;entryX=0.748;entryY=0.94;entryDx=0;entryDy=0;entryPerimeter=0;" edge="1" parent="1" target="NU09ctqqksHrogIv6mvl-205">
          <mxGeometry width="50" height="50" relative="1" as="geometry">
            <mxPoint x="1540.01" y="355.01" as="sourcePoint" />
            <mxPoint x="680.01" y="320.01" as="targetPoint" />
            <Array as="points">
              <mxPoint x="1540.01" y="480.01" />
              <mxPoint x="680.01" y="480.01" />
            </Array>
          </mxGeometry>
        </mxCell>
        <mxCell id="9HYfvGbNNLdlNzhzB_2Z-98" value="INSTR" style="edgeLabel;html=1;align=center;verticalAlign=middle;resizable=0;points=[];fontSize=8;" vertex="1" connectable="0" parent="9HYfvGbNNLdlNzhzB_2Z-79">
          <mxGeometry x="0.9632" relative="1" as="geometry">
            <mxPoint x="15" y="-1" as="offset" />
          </mxGeometry>
        </mxCell>
        <mxCell id="9HYfvGbNNLdlNzhzB_2Z-100" value="" style="endArrow=classic;html=1;rounded=0;entryX=0.3333333333333333;entryY=1;entryDx=10;entryDy=0;entryPerimeter=0;" edge="1" parent="1" target="9HYfvGbNNLdlNzhzB_2Z-53">
          <mxGeometry width="50" height="50" relative="1" as="geometry">
            <mxPoint x="1540.01" y="355.01" as="sourcePoint" />
            <mxPoint x="1540.01" y="280.01" as="targetPoint" />
          </mxGeometry>
        </mxCell>
        <mxCell id="9HYfvGbNNLdlNzhzB_2Z-101" value="" style="endArrow=classic;html=1;rounded=0;exitX=1.004;exitY=0.445;exitDx=0;exitDy=0;exitPerimeter=0;" edge="1" parent="1" source="NU09ctqqksHrogIv6mvl-248">
          <mxGeometry width="50" height="50" relative="1" as="geometry">
            <mxPoint x="890" y="280.51" as="sourcePoint" />
            <mxPoint x="920" y="280.51" as="targetPoint" />
          </mxGeometry>
        </mxCell>
        <mxCell id="9HYfvGbNNLdlNzhzB_2Z-111" value="Rd2" style="edgeLabel;html=1;align=center;verticalAlign=middle;resizable=0;points=[];fontSize=8;" vertex="1" connectable="0" parent="9HYfvGbNNLdlNzhzB_2Z-101">
          <mxGeometry x="-0.2487" y="1" relative="1" as="geometry">
            <mxPoint x="4" y="-5" as="offset" />
          </mxGeometry>
        </mxCell>
        <mxCell id="9HYfvGbNNLdlNzhzB_2Z-103" value="" style="endArrow=classic;html=1;rounded=0;" edge="1" parent="1">
          <mxGeometry width="50" height="50" relative="1" as="geometry">
            <mxPoint x="949.94" y="352" as="sourcePoint" />
            <mxPoint x="949.94" y="303.51" as="targetPoint" />
          </mxGeometry>
        </mxCell>
        <mxCell id="9HYfvGbNNLdlNzhzB_2Z-106" value="" style="endArrow=classic;html=1;rounded=0;" edge="1" parent="1">
          <mxGeometry width="50" height="50" relative="1" as="geometry">
            <mxPoint x="1020" y="352" as="sourcePoint" />
            <mxPoint x="1020" y="280" as="targetPoint" />
          </mxGeometry>
        </mxCell>
        <mxCell id="9HYfvGbNNLdlNzhzB_2Z-107" value="OPC" style="edgeLabel;html=1;align=center;verticalAlign=middle;resizable=0;points=[];fontSize=8;" vertex="1" connectable="0" parent="9HYfvGbNNLdlNzhzB_2Z-106">
          <mxGeometry x="0.5736" relative="1" as="geometry">
            <mxPoint x="15" y="-13" as="offset" />
          </mxGeometry>
        </mxCell>
        <mxCell id="9HYfvGbNNLdlNzhzB_2Z-108" value="" style="endArrow=classic;html=1;rounded=0;entryX=0;entryY=0.17857142857142858;entryDx=0;entryDy=3;entryPerimeter=0;exitX=0;exitY=0.5;exitDx=0;exitDy=0;" edge="1" parent="1" source="NU09ctqqksHrogIv6mvl-248" target="9HYfvGbNNLdlNzhzB_2Z-33">
          <mxGeometry width="50" height="50" relative="1" as="geometry">
            <mxPoint x="870" y="270" as="sourcePoint" />
            <mxPoint x="910" y="240" as="targetPoint" />
          </mxGeometry>
        </mxCell>
        <mxCell id="9HYfvGbNNLdlNzhzB_2Z-110" value="&lt;font style=&quot;font-size: 8px;&quot;&gt;IMMED&lt;/font&gt;" style="edgeLabel;html=1;align=center;verticalAlign=middle;resizable=0;points=[];fontSize=8;" vertex="1" connectable="0" parent="9HYfvGbNNLdlNzhzB_2Z-108">
          <mxGeometry relative="1" as="geometry">
            <mxPoint x="-5" y="-6" as="offset" />
          </mxGeometry>
        </mxCell>
        <mxCell id="9HYfvGbNNLdlNzhzB_2Z-115" value="" style="rounded=0;whiteSpace=wrap;html=1;" vertex="1" parent="1">
          <mxGeometry x="1170" y="226.89999999999998" width="20" height="66.24" as="geometry" />
        </mxCell>
        <mxCell id="9HYfvGbNNLdlNzhzB_2Z-116" value="" style="endArrow=classic;html=1;rounded=0;" edge="1" parent="1">
          <mxGeometry width="50" height="50" relative="1" as="geometry">
            <mxPoint x="1180" y="345" as="sourcePoint" />
            <mxPoint x="1180" y="293" as="targetPoint" />
          </mxGeometry>
        </mxCell>
        <mxCell id="9HYfvGbNNLdlNzhzB_2Z-121" value="" style="endArrow=classic;html=1;rounded=0;dashed=1;dashPattern=1 4;" edge="1" parent="1">
          <mxGeometry width="50" height="50" relative="1" as="geometry">
            <mxPoint x="880" y="280" as="sourcePoint" />
            <mxPoint x="1090" y="320" as="targetPoint" />
            <Array as="points">
              <mxPoint x="880" y="320" />
            </Array>
          </mxGeometry>
        </mxCell>
        <mxCell id="9HYfvGbNNLdlNzhzB_2Z-123" value="Rd2" style="edgeLabel;html=1;align=center;verticalAlign=middle;resizable=0;points=[];fontSize=8;" vertex="1" connectable="0" parent="9HYfvGbNNLdlNzhzB_2Z-121">
          <mxGeometry x="-0.4667" y="1" relative="1" as="geometry">
            <mxPoint x="193" y="1" as="offset" />
          </mxGeometry>
        </mxCell>
        <mxCell id="9HYfvGbNNLdlNzhzB_2Z-130" value="" style="endArrow=classic;html=1;rounded=0;exitX=1.01;exitY=0.778;exitDx=0;exitDy=0;exitPerimeter=0;entryX=0;entryY=0.5357142857142857;entryDx=0;entryDy=3;entryPerimeter=0;" edge="1" parent="1" source="NU09ctqqksHrogIv6mvl-248" target="9HYfvGbNNLdlNzhzB_2Z-131">
          <mxGeometry width="50" height="50" relative="1" as="geometry">
            <mxPoint x="860" y="190" as="sourcePoint" />
            <mxPoint x="880" y="160" as="targetPoint" />
            <Array as="points">
              <mxPoint x="1000" y="160" />
              <mxPoint x="1000" y="149" />
            </Array>
          </mxGeometry>
        </mxCell>
        <mxCell id="9HYfvGbNNLdlNzhzB_2Z-154" value="Rd" style="edgeLabel;html=1;align=center;verticalAlign=middle;resizable=0;points=[];fontSize=8;" vertex="1" connectable="0" parent="9HYfvGbNNLdlNzhzB_2Z-130">
          <mxGeometry x="-0.1997" relative="1" as="geometry">
            <mxPoint x="67" y="-8" as="offset" />
          </mxGeometry>
        </mxCell>
        <mxCell id="9HYfvGbNNLdlNzhzB_2Z-139" style="edgeStyle=orthogonalEdgeStyle;rounded=0;orthogonalLoop=1;jettySize=auto;html=1;exitX=1;exitY=0.5;exitDx=0;exitDy=-5;exitPerimeter=0;" edge="1" parent="1" source="9HYfvGbNNLdlNzhzB_2Z-131">
          <mxGeometry relative="1" as="geometry">
            <mxPoint x="1090" y="139.00699300699299" as="targetPoint" />
          </mxGeometry>
        </mxCell>
        <mxCell id="9HYfvGbNNLdlNzhzB_2Z-131" value="Mux" style="shadow=0;dashed=0;align=center;html=1;strokeWidth=1;shape=mxgraph.electrical.abstract.mux2;whiteSpace=wrap;operation=mux;selectorPins=1;fillColor=#0050ef;strokeColor=#001DBC;fontColor=#ffffff;" vertex="1" parent="1">
          <mxGeometry x="1020" y="116.01" width="60" height="56" as="geometry" />
        </mxCell>
        <mxCell id="9HYfvGbNNLdlNzhzB_2Z-137" style="edgeStyle=orthogonalEdgeStyle;rounded=0;orthogonalLoop=1;jettySize=auto;html=1;entryX=0;entryY=0.17857142857142858;entryDx=0;entryDy=3;entryPerimeter=0;exitX=1;exitY=0.25;exitDx=0;exitDy=0;" edge="1" parent="1" source="9HYfvGbNNLdlNzhzB_2Z-19" target="9HYfvGbNNLdlNzhzB_2Z-131">
          <mxGeometry relative="1" as="geometry">
            <Array as="points">
              <mxPoint x="1000" y="117" />
              <mxPoint x="1000" y="129" />
            </Array>
          </mxGeometry>
        </mxCell>
        <mxCell id="9HYfvGbNNLdlNzhzB_2Z-208" value="" style="triangle;whiteSpace=wrap;html=1;rotation=-90;" vertex="1" parent="1">
          <mxGeometry x="499.63" y="429.005" width="8.75" height="12.5" as="geometry" />
        </mxCell>
        <mxCell id="9HYfvGbNNLdlNzhzB_2Z-212" value="" style="endArrow=classic;html=1;rounded=0;entryX=0;entryY=0.7583333333333334;entryDx=0;entryDy=3;entryPerimeter=0;" edge="1" parent="1" target="wo_onzVFNb4peeyBDmlH-11">
          <mxGeometry width="50" height="50" relative="1" as="geometry">
            <mxPoint x="1150" y="100" as="sourcePoint" />
            <mxPoint x="70" y="220" as="targetPoint" />
            <Array as="points">
              <mxPoint x="1200" y="100" />
              <mxPoint x="1200" y="60" />
              <mxPoint x="504" y="60" />
              <mxPoint x="70" y="60" />
              <mxPoint x="70" y="214" />
            </Array>
          </mxGeometry>
        </mxCell>
        <mxCell id="9HYfvGbNNLdlNzhzB_2Z-213" value="" style="endArrow=classic;html=1;rounded=0;entryX=0;entryY=0.5416666666666667;entryDx=0;entryDy=3;entryPerimeter=0;" edge="1" parent="1" target="wo_onzVFNb4peeyBDmlH-11">
          <mxGeometry width="50" height="50" relative="1" as="geometry">
            <mxPoint x="1150.01" y="120.01" as="sourcePoint" />
            <mxPoint x="60" y="200" as="targetPoint" />
            <Array as="points">
              <mxPoint x="1220" y="120" />
              <mxPoint x="1220" y="30" />
              <mxPoint x="60" y="30" />
              <mxPoint x="60" y="188" />
            </Array>
          </mxGeometry>
        </mxCell>
        <mxCell id="9HYfvGbNNLdlNzhzB_2Z-214" value="R_abs" style="edgeLabel;html=1;align=center;verticalAlign=middle;resizable=0;points=[];fontSize=8;" vertex="1" connectable="0" parent="9HYfvGbNNLdlNzhzB_2Z-213">
          <mxGeometry x="0.3419" relative="1" as="geometry">
            <mxPoint x="844" y="83" as="offset" />
          </mxGeometry>
        </mxCell>
        <mxCell id="9HYfvGbNNLdlNzhzB_2Z-216" value="" style="endArrow=classic;html=1;rounded=0;entryX=0.5;entryY=1;entryDx=0;entryDy=0;" edge="1" parent="1" target="NU09ctqqksHrogIv6mvl-248">
          <mxGeometry width="50" height="50" relative="1" as="geometry">
            <mxPoint x="820" y="60" as="sourcePoint" />
            <mxPoint x="860" as="targetPoint" />
          </mxGeometry>
        </mxCell>
        <mxCell id="9HYfvGbNNLdlNzhzB_2Z-217" value="" style="endArrow=classic;html=1;rounded=0;" edge="1" parent="1">
          <mxGeometry width="50" height="50" relative="1" as="geometry">
            <mxPoint x="1120" y="60" as="sourcePoint" />
            <mxPoint x="1120" y="80" as="targetPoint" />
          </mxGeometry>
        </mxCell>
        <mxCell id="9HYfvGbNNLdlNzhzB_2Z-218" value="" style="endArrow=classic;html=1;rounded=0;entryX=0.5;entryY=1;entryDx=0;entryDy=0;" edge="1" parent="1" target="wo_onzVFNb4peeyBDmlH-4">
          <mxGeometry width="50" height="50" relative="1" as="geometry">
            <mxPoint x="504" y="60" as="sourcePoint" />
            <mxPoint x="500" y="70" as="targetPoint" />
          </mxGeometry>
        </mxCell>
        <mxCell id="9HYfvGbNNLdlNzhzB_2Z-221" value="" style="endArrow=classic;html=1;rounded=0;entryX=0.029;entryY=0.516;entryDx=0;entryDy=0;entryPerimeter=0;" edge="1" parent="1" target="9HYfvGbNNLdlNzhzB_2Z-219">
          <mxGeometry width="50" height="50" relative="1" as="geometry">
            <mxPoint x="1020" y="225" as="sourcePoint" />
            <mxPoint x="1070" y="175" as="targetPoint" />
            <Array as="points">
              <mxPoint x="1020" y="215" />
            </Array>
          </mxGeometry>
        </mxCell>
        <mxCell id="9HYfvGbNNLdlNzhzB_2Z-222" value="" style="endArrow=classic;html=1;rounded=0;" edge="1" parent="1">
          <mxGeometry width="50" height="50" relative="1" as="geometry">
            <mxPoint x="850" y="180" as="sourcePoint" />
            <mxPoint x="1036" y="180" as="targetPoint" />
          </mxGeometry>
        </mxCell>
        <mxCell id="9HYfvGbNNLdlNzhzB_2Z-223" value="INSTR" style="edgeLabel;html=1;align=center;verticalAlign=middle;resizable=0;points=[];fontSize=8;" vertex="1" connectable="0" parent="9HYfvGbNNLdlNzhzB_2Z-222">
          <mxGeometry x="-0.8394" relative="1" as="geometry">
            <mxPoint x="11" y="-7" as="offset" />
          </mxGeometry>
        </mxCell>
        <mxCell id="9HYfvGbNNLdlNzhzB_2Z-224" value="CMP" style="rounded=0;whiteSpace=wrap;html=1;" vertex="1" parent="1">
          <mxGeometry x="1036" y="172" width="28" height="20" as="geometry" />
        </mxCell>
        <mxCell id="9HYfvGbNNLdlNzhzB_2Z-230" value="STACK" style="rounded=0;whiteSpace=wrap;html=1;" vertex="1" parent="1">
          <mxGeometry x="937.02" y="70.01" width="75" height="20" as="geometry" />
        </mxCell>
        <mxCell id="9HYfvGbNNLdlNzhzB_2Z-231" style="edgeStyle=orthogonalEdgeStyle;rounded=0;orthogonalLoop=1;jettySize=auto;html=1;entryX=0.501;entryY=0.059;entryDx=0;entryDy=0;entryPerimeter=0;" edge="1" parent="1" source="9HYfvGbNNLdlNzhzB_2Z-230" target="9HYfvGbNNLdlNzhzB_2Z-131">
          <mxGeometry relative="1" as="geometry" />
        </mxCell>
        <mxCell id="9HYfvGbNNLdlNzhzB_2Z-232" value="" style="endArrow=classic;html=1;rounded=0;entryX=0;entryY=0.5;entryDx=0;entryDy=0;" edge="1" parent="1" target="9HYfvGbNNLdlNzhzB_2Z-230">
          <mxGeometry width="50" height="50" relative="1" as="geometry">
            <mxPoint x="900" y="180" as="sourcePoint" />
            <mxPoint x="930" y="80" as="targetPoint" />
            <Array as="points">
              <mxPoint x="900" y="80" />
            </Array>
          </mxGeometry>
        </mxCell>
      </root>
    </mxGraphModel>
  </diagram>
</mxfile>
